<svg width="120" height="20" viewBox="0 0 120 20" fill="none" xmlns="http://www.w3.org/2000/svg">
<path d="M114.093 17.3323C112.728 15.9008 110.745 15 108.538 15C106.331 15 104.348 15.9008 102.984 17.3323M108.538 19C103.246 19 98.9556 14.9706 98.9556 10C98.9556 5.02944 103.246 1 108.538 1C113.831 1 118.121 5.02944 118.121 10C118.121 14.9706 113.831 19 108.538 19ZM108.538 12C106.774 12 105.344 10.6569 105.344 9C105.344 7.34315 106.774 6 108.538 6C110.302 6 111.732 7.34315 111.732 9C111.732 10.6569 110.302 12 108.538 12Z" stroke="white" stroke-width="2" stroke-linecap="round" stroke-linejoin="round"/>
<path d="M59.5602 5.15428C57.4307 0.459839 49.9775 0.959839 49.9775 6.95987C49.9775 12.9599 59.5602 17.9601 59.5602 17.9601C59.5602 17.9601 69.1428 12.9599 69.1428 6.95987C69.1428 0.959839 61.6896 0.459839 59.5602 5.15428Z" stroke="white" stroke-width="2" stroke-linecap="round" stroke-linejoin="round"/>
<path d="M1 1H1.28572C1.79017 1 2.04284 1 2.24858 1.08548C2.42998 1.16084 2.58508 1.28218 2.69692 1.43604C2.82356 1.61026 2.86929 1.8429 2.96057 2.30727L5.25898 14L16.3554 14C16.8379 14 17.0799 14 17.2798 13.9199C17.4564 13.8492 17.6087 13.7346 17.7217 13.5889C17.8496 13.4242 17.9038 13.2037 18.0121 12.7631L18.0129 12.76L19.6837 5.95996L19.684 5.95854C19.8483 5.29016 19.9306 4.95515 19.8402 4.69238C19.7609 4.46182 19.594 4.26634 19.3726 4.14192C19.1201 4 18.7553 4 18.0237 4H3.66184M16.971 19C16.383 19 15.9063 18.5523 15.9063 18C15.9063 17.4477 16.383 17 16.971 17C17.5591 17 18.0358 17.4477 18.0358 18C18.0358 18.5523 17.5591 19 16.971 19ZM6.32367 19C5.73564 19 5.25894 18.5523 5.25894 18C5.25894 17.4477 5.73564 17 6.32367 17C6.91171 17 7.38841 17.4477 7.38841 18C7.38841 18.5523 6.91171 19 6.32367 19Z" stroke="white" stroke-width="2" stroke-linecap="round" stroke-linejoin="round"/>
</svg>
